<svg width="984" height="974" viewBox="0 0 984 974" fill="none" xmlns="http://www.w3.org/2000/svg">
<g opacity="0.6" clip-path="url(#clip0_1_446)">
<path d="M611.438 812.328L611.529 811.992L845.136 874.584L845.046 874.919L611.438 812.328Z" fill="#D1D1D1"/>
<path d="M614.285 957.724L551.694 724.117L552.029 724.027L614.621 957.634L614.285 957.724Z" fill="#D1D1D1"/>
<path d="M436.45 630.679L387.186 446.975L387.484 446.895L436.749 630.599L436.45 630.679Z" fill="#D1D1D1"/>
<path d="M577.861 354.1L515.269 120.493L515.605 120.403L578.196 354.01L577.861 354.1Z" fill="#D1D1D1"/>
<path d="M193.262 250.852L193.339 250.563L364.762 296.494L364.685 296.783L193.262 250.852Z" fill="#D1D1D1"/>
<path d="M147.857 202.692L147.935 202.402L319.358 248.332L319.28 248.622L147.857 202.692Z" fill="#D1D1D1"/>
<path d="M426.972 654.922L427.049 654.633L598.47 700.562L598.396 700.854L426.972 654.922Z" fill="#D1D1D1"/>
<path d="M482.407 400.439L482.476 400.182L618.872 436.728L618.804 436.984L482.407 400.439Z" fill="#D1D1D1"/>
<path d="M285.412 400.785L285.316 400.757L246.448 390.344L217.925 418.867L217.953 418.963L228.366 457.831L267.33 468.272L295.853 439.748L295.826 439.653L285.412 400.785ZM246.551 390.733L285.129 401.068L295.464 439.646L267.224 467.886L228.649 457.548L218.311 418.973L246.551 390.733Z" fill="#D1D1D1"/>
<path d="M412.11 470.724L412.014 470.696L373.146 460.282L344.622 488.806L344.65 488.901L355.064 527.77L355.159 527.797L394.027 538.21L422.55 509.687L422.523 509.592L412.11 470.724ZM373.251 460.668L411.83 471.004L422.165 509.582L393.925 537.822L355.347 527.487L345.012 488.908L373.251 460.668Z" fill="#D1D1D1"/>
<path d="M387.619 446.056L387.36 445.987L348.331 435.529L319.572 464.288L319.64 464.547L330.099 503.576L369.386 514.102L398.145 485.343L398.077 485.084L387.619 446.056ZM348.607 436.564L386.861 446.813L397.111 485.067L369.107 513.071L330.853 502.822L320.603 464.568L348.607 436.564Z" fill="#D1D1D1"/>
<path d="M418.539 562.606L418.443 562.578L379.575 552.165L351.052 580.688L351.079 580.783L361.493 619.652L400.457 630.093L428.98 601.57L428.953 601.474L418.539 562.606ZM379.681 552.551L418.259 562.886L428.594 601.464L400.355 629.703L361.776 619.368L351.441 580.79L379.681 552.551Z" fill="#D1D1D1"/>
<path d="M408.155 523.831L408.06 523.803L369.192 513.39L340.668 541.913L340.696 542.008L351.109 580.876L390.073 591.318L418.596 562.795L418.569 562.699L408.155 523.831ZM369.297 513.782L407.876 524.117L418.211 562.696L389.971 590.935L351.393 580.6L341.057 542.022L369.297 513.782Z" fill="#D1D1D1"/>
<path d="M299.684 386.513L299.424 386.445L260.395 375.987L231.637 404.746L242.163 444.034L281.451 454.561L310.21 425.802L310.142 425.542L299.684 386.513ZM260.672 377.022L298.926 387.272L309.175 425.525L281.171 453.529L242.921 443.276L232.671 405.022L260.672 377.022Z" fill="#D1D1D1"/>
<path d="M289.061 347.976L288.966 347.949L250.097 337.535L221.574 366.058L221.602 366.154L232.015 405.022L270.979 415.464L299.503 386.94L299.475 386.845L289.061 347.976ZM250.203 337.921L288.781 348.256L299.117 386.835L270.877 415.074L232.299 404.739L221.963 366.161L250.203 337.921Z" fill="#D1D1D1"/>
<path d="M348.607 435.908L348.512 435.88L309.643 425.467L281.12 453.99L281.148 454.086L291.561 492.954L330.525 503.395L359.048 474.871L359.021 474.776L348.607 435.908ZM309.746 425.856L348.32 436.195L358.659 474.769L330.419 503.009L291.841 492.674L281.506 454.096L309.746 425.856Z" fill="#D1D1D1"/>
<path d="M320.224 464.291L320.128 464.263L281.26 453.85L252.737 482.373L252.765 482.469L263.178 521.337L302.142 531.778L330.665 503.255L330.638 503.159L320.224 464.291ZM281.366 454.236L319.944 464.571L330.279 503.149L302.04 531.388L263.462 521.054L253.126 482.475L281.366 454.236Z" fill="#D1D1D1"/>
<path d="M698.952 331.352L698.693 331.284L659.663 320.826L630.905 349.584L630.974 349.844L641.431 388.872L641.691 388.941L680.72 399.399L709.478 370.64L709.41 370.381L698.952 331.352ZM659.94 321.86L698.194 332.11L708.444 370.364L680.44 398.368L642.186 388.118L631.936 349.864L659.94 321.86Z" fill="#D1D1D1"/>
<path d="M688.329 292.815L688.234 292.788L649.366 282.374L620.842 310.898L620.869 310.993L631.283 349.861L631.379 349.889L670.247 360.302L698.77 331.779L698.743 331.684L688.329 292.815ZM649.475 282.764L688.05 293.102L698.388 331.677L670.148 359.917L631.573 349.578L621.235 311.003L649.475 282.764Z" fill="#D1D1D1"/>
<path d="M649.561 282.432L649.465 282.405L610.597 271.991L582.074 300.514L582.101 300.61L592.515 339.478L592.61 339.505L631.478 349.919L660.002 321.396L659.974 321.3L649.561 282.432ZM610.699 272.38L649.277 282.716L659.613 321.294L631.373 349.533L592.795 339.198L582.459 300.62L610.699 272.38Z" fill="#D1D1D1"/>
<path d="M621.413 310.579L621.154 310.511L582.125 300.053L553.366 328.812L553.434 329.071L563.892 368.1L564.152 368.168L603.181 378.626L631.939 349.867L631.871 349.608L621.413 310.579ZM582.405 301.084L620.658 311.334L630.908 349.588L602.904 377.592L564.65 367.342L554.401 329.088L582.405 301.084Z" fill="#D1D1D1"/>
<path d="M515.972 121.066L515.877 121.038L477.008 110.624L448.485 139.147L448.513 139.243L458.926 178.111L459.022 178.139L497.89 188.553L526.414 160.03L526.386 159.934L515.972 121.066ZM477.114 111.01L515.689 121.349L526.028 159.924L497.788 188.163L459.213 177.825L448.874 139.25L477.114 111.01Z" fill="#D1D1D1"/>
<path d="M505.59 82.2887L505.494 82.2616L466.626 71.8479L438.103 100.371L438.13 100.466L448.544 139.335L448.639 139.362L487.508 149.776L516.031 121.253L516.003 121.157L505.59 82.2887ZM466.728 72.2372L505.303 82.5753L515.642 121.15L487.402 149.39L448.827 139.051L438.489 100.477L466.728 72.2372Z" fill="#D1D1D1"/>
<path d="M466.813 71.9065L466.717 71.879L427.849 61.4652L399.326 89.9884L399.354 90.0842L409.767 128.952L409.863 128.98L448.731 139.393L477.254 110.87L477.227 110.775L466.813 71.9065ZM427.955 61.8511L466.53 72.19L476.868 110.764L448.629 139.004L410.05 128.669L399.715 90.0907L427.955 61.8511Z" fill="#D1D1D1"/>
<path d="M438.434 100.286L438.338 100.259L399.47 89.8449L370.946 118.368L370.974 118.464L381.387 157.332L381.483 157.359L420.351 167.773L448.874 139.25L448.847 139.154L438.434 100.286ZM399.572 90.2342L438.15 100.57L448.485 139.147L420.245 167.387L381.667 157.052L371.332 118.474L399.572 90.2342Z" fill="#D1D1D1"/>
<path d="M705.45 423.172L705.355 423.145L666.486 412.732L637.963 441.255L637.99 441.35L648.404 480.218L648.499 480.246L687.368 490.66L715.891 462.137L715.863 462.041L705.45 423.172ZM666.588 413.121L705.163 423.459L715.501 462.034L687.262 490.274L648.687 479.935L638.349 441.361L666.588 413.121Z" fill="#D1D1D1"/>
<path d="M680.72 398.744L680.624 398.716L641.755 388.303L613.232 416.825L613.26 416.921L623.673 455.79L623.769 455.817L662.637 466.23L691.16 437.708L691.133 437.612L680.72 398.744ZM641.858 388.692L680.433 399.031L690.771 437.605L662.531 465.845L623.953 455.51L613.618 416.931L641.858 388.692Z" fill="#D1D1D1"/>
<path d="M711.884 515.06L711.784 515.029L672.918 504.618L644.395 533.141L644.422 533.236L654.838 572.107L654.933 572.134L693.799 582.545L722.322 554.022L722.295 553.927L711.884 515.06ZM673.02 505.007L711.597 515.347L721.934 553.921L693.694 582.16L655.118 571.827L644.78 533.247L673.02 505.007Z" fill="#D1D1D1"/>
<path d="M641.944 388.36L641.848 388.333L602.979 377.919L574.456 406.442L574.484 406.538L584.897 445.406L584.993 445.434L623.861 455.847L652.384 427.324L652.357 427.229L641.944 388.36ZM603.082 378.309L641.66 388.644L651.995 427.222L623.755 455.461L585.181 445.123L574.842 406.548L603.082 378.309Z" fill="#D1D1D1"/>
<path opacity="0.3" d="M895.587 527.987L895.325 527.916L856.296 517.458L827.537 546.216L827.608 546.478L838.066 585.507L838.323 585.574L877.353 596.032L906.111 567.274L906.041 567.011L895.587 527.987ZM856.573 518.493L894.829 528.745L905.076 566.996L877.072 595L838.82 584.753L828.569 546.497L856.573 518.493Z" fill="#FFC300"/>
<path d="M884.966 489.452L884.871 489.425L846 479.009L817.477 507.532L817.504 507.628L827.92 546.498L828.016 546.525L866.882 556.937L895.405 528.414L895.378 528.318L884.966 489.452ZM846.11 479.399L884.683 489.735L895.02 528.309L866.78 556.548L828.207 546.212L817.87 507.638L846.11 479.399Z" fill="#D1D1D1"/>
<path d="M902.081 619.803L901.985 619.776L863.119 609.365L834.596 637.888L834.623 637.983L845.034 676.849L845.134 676.881L884 687.292L912.523 658.769L912.496 658.674L902.081 619.803ZM863.22 609.753L901.794 620.09L912.135 658.668L883.895 686.907L845.318 676.566L834.981 637.993L863.22 609.753Z" fill="#D1D1D1"/>
<path d="M877.352 595.376L877.257 595.349L838.386 584.934L809.863 613.456L809.89 613.552L820.306 652.423L820.401 652.45L859.272 662.865L887.795 634.342L887.764 634.242L877.352 595.376ZM838.492 585.326L877.065 595.663L887.402 634.236L859.163 662.476L820.586 652.143L810.253 613.566L838.492 585.326Z" fill="#D1D1D1"/>
<path d="M838.579 584.995L838.483 584.968L799.612 574.552L771.089 603.075L771.116 603.171L781.532 642.041L781.628 642.068L820.494 652.48L849.017 623.957L848.99 623.861L838.579 584.995ZM799.714 574.941L838.295 585.278L848.628 623.855L820.389 652.095L781.816 641.758L771.474 603.18L799.714 574.941Z" fill="#D1D1D1"/>
<path d="M613.564 416.74L613.468 416.713L574.599 406.299L546.076 434.822L546.104 434.918L556.517 473.787L556.613 473.814L595.481 484.227L624.004 455.704L623.977 455.609L613.564 416.74ZM574.702 406.689L613.277 417.027L623.615 455.602L595.375 483.842L556.797 473.507L546.462 434.928L574.702 406.689Z" fill="#D1D1D1"/>
<path d="M662.723 465.899L662.627 465.872L623.759 455.459L595.235 483.982L595.263 484.077L605.676 522.946L605.772 522.973L644.64 533.387L673.164 504.864L673.136 504.768L662.723 465.899ZM623.861 455.848L662.436 466.186L672.774 504.761L644.535 533.001L605.956 522.666L595.621 484.088L623.861 455.848Z" fill="#D1D1D1"/>
<path opacity="0.34" d="M634.575 494.047L634.316 493.979L595.287 483.52L566.528 512.279L566.596 512.539L577.054 551.568L577.314 551.636L616.343 562.094L645.101 533.335L645.033 533.075L634.575 494.047ZM595.567 484.552L633.821 494.801L644.071 533.055L616.066 561.06L577.812 550.809L567.563 512.556L595.567 484.552Z" fill="#1814E5"/>
<path d="M366.601 368.755L366.505 368.728L327.636 358.314L299.113 386.837L299.141 386.933L309.555 425.801L309.65 425.828L348.518 436.242L377.041 407.719L377.014 407.624L366.601 368.755ZM327.739 358.703L366.314 369.042L376.652 407.617L348.413 435.857L309.835 425.521L299.499 386.943L327.739 358.703Z" fill="#D1D1D1"/>
<path d="M493.295 438.691L493.2 438.664L454.334 428.253L425.811 456.777L425.839 456.872L436.252 495.741L436.348 495.768L475.216 506.181L503.739 477.658L503.712 477.563L493.295 438.691ZM454.436 428.643L493.015 438.978L503.35 477.556L475.11 505.796L436.536 495.457L426.197 456.882L454.436 428.643Z" fill="#D1D1D1"/>
<path d="M489.641 491.504L489.545 491.476L450.677 481.063L422.154 509.586L422.181 509.681L432.595 548.549L432.691 548.577L471.559 558.991L500.082 530.468L500.055 530.372L489.641 491.504ZM450.783 481.448L489.361 491.783L499.696 530.362L471.457 558.601L432.881 548.263L422.543 509.688L450.783 481.448Z" fill="#D1D1D1"/>
<path d="M528.66 501.644L528.401 501.576L489.372 491.117L460.613 519.876L460.682 520.136L471.139 559.164L471.399 559.233L510.428 569.691L539.187 540.932L539.118 540.673L528.66 501.644ZM489.648 492.152L527.902 502.402L538.152 540.656L510.148 568.66L471.894 558.41L461.644 520.156L489.648 492.152Z" fill="#D1D1D1"/>
<path d="M534.853 593.769L534.758 593.741L495.89 583.328L467.367 611.851L467.394 611.946L477.807 650.814L516.772 661.256L545.295 632.733L545.267 632.637L534.853 593.769ZM495.996 583.713L534.57 594.052L544.909 632.627L516.669 660.866L478.091 650.531L467.756 611.953L495.996 583.713Z" fill="#D1D1D1"/>
<path d="M524.472 554.992L524.376 554.964L485.507 544.551L456.984 573.074L457.012 573.17L467.425 612.038L467.521 612.065L506.389 622.479L534.912 593.956L534.885 593.86L524.472 554.992ZM485.609 544.94L524.185 555.279L534.523 593.853L506.283 622.093L467.705 611.758L457.37 573.18L485.609 544.94Z" fill="#D1D1D1"/>
<path d="M485.694 544.609L485.599 544.582L446.73 534.168L418.207 562.691L418.235 562.787L428.648 601.655L467.612 612.096L496.135 583.573L496.108 583.478L485.694 544.609ZM446.836 534.554L485.411 544.893L495.749 583.467L467.51 611.707L428.932 601.372L418.597 562.794L446.836 534.554Z" fill="#D1D1D1"/>
<path d="M609.61 469.853L609.514 469.826L570.646 459.412L542.123 487.935L542.151 488.031L552.564 526.899L552.659 526.927L591.528 537.34L620.051 508.817L620.024 508.721L609.61 469.853ZM570.752 459.798L609.33 470.133L619.665 508.711L591.425 536.951L552.847 526.616L542.512 488.038L570.752 459.798Z" fill="#D1D1D1"/>
<path d="M585.187 445.117L585.091 445.089L546.223 434.675L517.7 463.199L517.727 463.294L528.141 502.163L528.237 502.19L567.105 512.604L595.628 484.08L595.601 483.985L585.187 445.117ZM546.325 435.065L584.904 445.4L595.239 483.978L566.999 512.218L528.425 501.879L518.086 463.305L546.325 435.065Z" fill="#D1D1D1"/>
<path d="M616.343 561.439L616.247 561.411L577.378 550.998L548.855 579.521L548.883 579.616L559.297 618.485L559.392 618.512L598.262 628.927L626.785 600.404L626.758 600.309L616.343 561.439ZM577.481 551.387L616.056 561.725L626.392 600.298L598.153 628.538L559.577 618.205L549.241 579.627L577.481 551.387Z" fill="#D1D1D1"/>
<path d="M605.957 522.665L605.862 522.638L566.993 512.224L538.47 540.747L538.497 540.843L548.911 579.711L549.007 579.739L587.875 590.152L616.398 561.629L616.371 561.533L605.957 522.665ZM567.099 512.61L605.677 522.945L616.012 561.523L587.773 589.763L549.194 579.428L538.859 540.85L567.099 512.61Z" fill="#D1D1D1"/>
<path d="M430.826 206.212L430.731 206.184L391.862 195.77L363.339 224.293L363.367 224.389L373.78 263.257L373.876 263.285L412.744 273.699L441.268 245.176L441.24 245.08L430.826 206.212ZM391.965 196.16L430.543 206.495L440.878 245.073L412.638 273.313L374.063 262.974L363.725 224.399L391.965 196.16Z" fill="#D1D1D1"/>
<path d="M437.259 298.097L437.163 298.069L398.295 287.656L369.772 316.179L369.799 316.275L380.213 355.143L380.308 355.17L419.177 365.584L447.7 337.061L447.673 336.965L437.259 298.097ZM398.397 288.045L436.975 298.38L447.311 336.959L419.071 365.198L380.496 354.86L370.158 316.285L398.397 288.045Z" fill="#D1D1D1"/>
<path d="M426.873 259.324L426.777 259.297L387.909 248.883L359.386 277.406L359.413 277.502L369.827 316.37L369.922 316.398L408.79 326.811L437.314 298.288L437.286 298.193L426.873 259.324ZM388.015 249.269L426.593 259.604L436.928 298.182L408.688 326.422L370.114 316.083L359.775 277.509L388.015 249.269Z" fill="#D1D1D1"/>
<path d="M512.015 174.182L511.919 174.154L473.051 163.741L444.528 192.264L444.555 192.36L454.969 231.228L455.064 231.255L493.933 241.669L522.456 213.146L522.429 213.051L512.015 174.182ZM473.154 164.13L511.728 174.469L522.067 213.043L493.827 241.283L455.249 230.948L444.914 192.37L473.154 164.13Z" fill="#D1D1D1"/>
<path d="M487.589 149.449L487.494 149.422L448.625 139.007L420.102 167.531L420.129 167.626L430.543 206.495L430.639 206.522L469.507 216.936L498.03 188.413L498.003 188.317L487.589 149.449ZM448.731 139.393L487.306 149.732L497.644 188.307L469.405 216.547L430.826 206.212L420.491 167.633L448.731 139.393Z" fill="#D1D1D1"/>
<path opacity="0.34" d="M518.981 265.535L518.721 265.466L479.693 255.008L450.934 283.767L451.002 284.026L461.46 323.055L461.719 323.123L500.748 333.582L529.507 304.823L529.439 304.563L518.981 265.535ZM479.972 256.039L518.226 266.289L528.476 304.543L500.472 332.547L462.218 322.297L451.968 284.043L479.972 256.039Z" fill="#1814E5"/>
<path d="M508.362 226.994L508.267 226.966L469.398 216.552L440.875 245.075L440.903 245.171L451.316 284.039L451.412 284.067L490.28 294.48L518.803 265.957L518.776 265.862L508.362 226.994ZM469.501 216.942L508.076 227.28L518.414 265.855L490.175 294.095L451.6 283.756L441.261 245.181L469.501 216.942Z" fill="#D1D1D1"/>
<path d="M447.786 336.729L447.69 336.702L408.822 326.288L380.299 354.811L380.326 354.907L390.74 393.775L390.835 393.802L429.704 404.216L458.227 375.693L458.2 375.598L447.786 336.729ZM408.928 326.674L447.502 337.013L457.841 375.587L429.601 403.827L391.027 393.489L380.688 354.914L408.928 326.674Z" fill="#D1D1D1"/>
<path d="M482.615 400.218L482.519 400.191L443.651 389.777L415.128 418.3L415.155 418.396L425.569 457.264L425.664 457.291L464.533 467.705L493.056 439.182L493.029 439.087L482.615 400.218ZM443.757 390.163L482.335 400.498L492.67 439.077L464.431 467.316L425.852 456.981L415.517 418.403L443.757 390.163Z" fill="#D1D1D1"/>
<path d="M567.757 315.076L567.662 315.048L528.793 304.635L500.27 333.158L500.298 333.254L510.712 372.122L510.807 372.149L549.675 382.563L578.198 354.039L578.171 353.944L567.757 315.076ZM528.896 305.024L567.471 315.362L577.809 353.937L549.57 382.177L510.992 371.842L500.656 333.264L528.896 305.024Z" fill="#D1D1D1"/>
<path d="M543.635 290.039L543.539 290.012L504.671 279.598L476.148 308.121L476.175 308.217L486.589 347.085L486.685 347.112L525.553 357.526L554.076 329.003L554.049 328.908L543.635 290.039ZM504.774 279.987L543.349 290.326L553.687 328.901L525.447 357.14L486.869 346.805L476.534 308.227L504.774 279.987Z" fill="#D1D1D1"/>
<path d="M515.024 318.651L514.928 318.623L476.06 308.21L447.537 336.733L447.564 336.828L457.977 375.697L458.073 375.724L496.941 386.138L525.465 357.615L525.438 357.519L515.024 318.651ZM476.166 308.595L514.74 318.934L525.079 357.509L496.839 385.748L458.261 375.414L447.926 336.835L476.166 308.595Z" fill="#D1D1D1"/>
<path opacity="0.6" d="M786.013 588.405L785.751 588.335L746.722 577.877L717.963 606.635L718.034 606.897L728.492 645.926L728.75 645.993L767.779 656.451L796.537 627.692L796.471 627.435L786.013 588.405ZM746.999 578.912L785.255 589.164L795.502 627.415L767.498 655.419L729.247 645.172L718.995 606.916L746.999 578.912Z" fill="#1814E6"/>
<path d="M761.042 564.212L760.947 564.185L722.081 553.774L693.557 582.297L693.585 582.392L703.996 621.258L704.091 621.285L742.962 631.701L771.485 603.178L771.458 603.083L761.042 564.212ZM722.186 554.159L760.762 564.492L771.1 603.073L742.86 631.313L704.28 620.975L693.946 582.398L722.186 554.159Z" fill="#D1D1D1"/>
<path d="M792.203 680.526L792.107 680.499L753.237 670.083L724.714 698.606L724.741 698.701L735.157 737.572L735.252 737.599L774.123 748.015L802.646 719.491L802.614 719.392L792.203 680.526ZM753.343 670.476L791.919 680.809L802.253 719.386L774.013 747.625L735.437 737.292L725.103 698.715L753.343 670.476Z" fill="#D1D1D1"/>
<path opacity="0.3" d="M782.058 641.516L781.796 641.445L742.767 630.987L714.008 659.746L714.079 660.007L724.537 699.036L724.794 699.103L763.824 709.561L792.582 680.802L792.512 680.541L782.058 641.516ZM743.044 632.022L781.3 642.273L791.547 680.525L763.543 708.529L725.292 698.282L715.04 660.026L743.044 632.022Z" fill="#FFC300"/>
<path d="M722.272 553.828L722.176 553.8L683.306 543.385L654.783 571.908L654.81 572.003L665.225 610.874L665.321 610.901L704.192 621.317L732.715 592.793L732.683 592.694L722.272 553.828ZM683.412 543.777L721.985 554.115L732.322 592.688L704.082 620.927L665.509 610.59L655.172 572.017L683.412 543.777Z" fill="#D1D1D1"/>
<path d="M743.048 631.371L742.952 631.344L704.082 620.928L675.559 649.451L675.586 649.546L686.002 688.417L686.097 688.444L724.963 698.855L753.486 670.332L753.459 670.237L743.048 631.371ZM704.188 621.32L742.764 631.654L753.098 670.231L724.858 698.47L686.282 688.137L675.948 649.56L704.188 621.32Z" fill="#D1D1D1"/>
<path d="M714.665 659.753L714.57 659.726L675.699 649.31L647.176 677.834L647.203 677.929L657.619 716.799L657.714 716.826L696.58 727.238L725.104 698.715L725.076 698.619L714.665 659.753ZM675.809 649.7L714.381 660.037L724.719 698.61L696.479 726.849L657.902 716.516L647.569 677.939L675.809 649.7Z" fill="#D1D1D1"/>
<path d="M608.75 667.35L608.654 667.323L569.783 656.907L541.261 685.43L541.288 685.525L551.703 724.396L551.799 724.423L590.669 734.839L619.192 706.316L619.161 706.216L608.75 667.35ZM569.893 657.296L608.47 667.63L618.803 706.207L590.563 734.446L551.987 724.113L541.653 685.536L569.893 657.296Z" fill="#D1D1D1"/>
<path d="M665.512 610.587L665.417 610.56L626.546 600.144L598.023 628.667L598.051 628.762L608.466 667.633L608.561 667.66L647.432 678.076L675.955 649.553L675.924 649.453L665.512 610.587ZM626.656 600.534L665.229 610.87L675.566 649.444L647.326 677.683L608.75 667.35L598.416 628.773L626.656 600.534Z" fill="#D1D1D1"/>
<path d="M696.666 726.907L696.571 726.88L657.7 716.464L629.177 744.987L629.204 745.083L639.62 783.954L639.715 783.981L678.582 794.392L707.105 765.869L707.078 765.773L696.666 726.907ZM657.805 716.849L696.386 727.187L706.72 765.764L678.48 794.003L639.903 783.67L629.566 745.089L657.805 716.849Z" fill="#D1D1D1"/>
<path opacity="0.3" d="M686.52 687.898L686.259 687.827L647.229 677.369L618.47 706.128L618.541 706.389L629 745.419L629.257 745.485L668.286 755.943L697.045 727.185L696.978 726.927L686.52 687.898ZM647.51 678.401L685.766 688.653L696.013 726.904L668.009 754.908L629.757 744.661L619.506 706.405L647.51 678.401Z" fill="#1814E5"/>
<path d="M619.137 706.118L619.041 706.091L580.175 695.679L551.652 724.202L551.679 724.298L562.091 763.164L601.057 773.607L629.58 745.084L629.553 744.988L619.137 706.118ZM580.277 696.068L618.853 706.401L629.191 744.982L600.952 773.222L562.371 762.884L552.037 724.307L580.277 696.068Z" fill="#D1D1D1"/>
<path d="M601.143 773.276L562.177 762.833L533.654 791.356L533.681 791.451L544.097 830.322L583.058 840.76L611.581 812.237L611.554 812.142L601.143 773.276ZM562.283 763.225L600.859 773.559L611.193 812.136L582.953 840.375L544.377 830.042L534.043 791.465L562.283 763.225Z" fill="#D1D1D1"/>
<path d="M590.757 734.497L590.662 734.47L551.796 724.058L523.273 752.582L523.3 752.677L533.711 791.543L572.677 801.986L601.2 773.463L601.173 773.367L590.757 734.497ZM551.898 724.447L590.471 734.784L600.812 773.361L572.572 801.601L533.991 791.263L523.658 752.687L551.898 724.447Z" fill="#D1D1D1"/>
<path d="M655.114 571.83L655.014 571.799L616.148 561.387L587.625 589.91L587.652 590.006L598.068 628.877L598.163 628.904L637.03 639.315L665.553 610.792L665.526 610.696L655.114 571.83ZM616.254 561.773L654.834 572.11L665.168 610.687L636.928 638.926L598.351 628.593L588.014 590.013L616.254 561.773Z" fill="#D1D1D1"/>
<path d="M612.555 614.389L612.455 614.358L573.589 603.947L545.066 632.47L545.093 632.565L555.508 671.436L555.604 671.463L594.47 681.874L622.993 653.351L622.966 653.256L612.555 614.389ZM573.691 604.336L612.271 614.673L622.605 653.249L594.365 681.489L555.788 671.156L545.452 632.576L573.691 604.336Z" fill="#D1D1D1"/>
<path d="M375.235 65.1737L375.14 65.1466L336.271 54.7326L307.748 83.2558L307.775 83.3514L318.189 122.22L318.285 122.247L357.153 132.661L385.676 104.138L385.649 104.042L375.235 65.1737ZM336.373 55.1219L374.952 65.4568L385.287 104.035L357.047 132.275L318.473 121.936L308.134 83.3616L336.373 55.1219Z" fill="#D1D1D1"/>
<path d="M350.741 40.5078L350.482 40.4397L311.453 29.9817L282.694 58.7402L282.762 58.9999L293.22 98.0288L293.48 98.0969L332.509 108.555L361.268 79.7964L361.199 79.5366L350.741 40.5078ZM311.73 31.0161L349.983 41.2659L360.233 79.5195L332.229 107.524L293.975 97.2741L283.725 59.0204L311.73 31.0161Z" fill="#D1D1D1"/>
<path d="M381.661 157.059L381.565 157.032L342.696 146.618L314.173 175.141L314.201 175.237L324.614 214.105L324.71 214.133L363.578 224.546L392.101 196.023L392.074 195.928L381.661 157.059ZM342.806 147.008L381.381 157.346L391.719 195.921L363.479 224.16L324.901 213.825L314.566 175.247L342.806 147.008Z" fill="#D1D1D1"/>
<path d="M371.281 118.286L371.186 118.259L332.317 107.845L303.795 136.368L303.822 136.463L314.235 175.332L314.331 175.36L353.2 185.773L381.722 157.25L381.695 157.154L371.281 118.286ZM332.423 108.231L370.998 118.569L381.336 157.144L353.094 185.387L314.515 175.052L304.181 136.474L332.423 108.231Z" fill="#D1D1D1"/>
<path d="M311.964 30.1257L311.705 30.0572L272.68 19.5957L243.921 48.3547L243.989 48.6139L254.447 87.6428L254.707 87.7113L293.735 98.1693L322.494 69.4103L322.426 69.1511L311.964 30.1257ZM272.956 20.6306L311.21 30.88L321.46 69.1341L293.456 97.138L255.202 86.8881L244.952 48.6344L272.956 20.6306Z" fill="#D1D1D1"/>
<path d="M283.346 58.7445L283.25 58.7171L244.382 48.3038L215.859 76.827L215.886 76.9225L226.3 115.791L226.395 115.818L265.264 126.232L293.787 97.7087L293.759 97.6132L283.346 58.7445ZM244.488 48.6896L283.063 59.028L293.401 97.6029L265.161 125.843L226.583 115.507L216.248 76.9293L244.488 48.6896Z" fill="#D1D1D1"/>
<path d="M332.505 107.904L332.41 107.876L293.541 97.4629L265.018 125.986L265.045 126.082L275.459 164.95L275.555 164.977L314.423 175.391L342.946 146.868L342.918 146.772L332.505 107.904ZM293.647 97.8487L332.222 108.187L342.56 146.762L314.32 175.002L275.742 164.666L265.407 126.088L293.647 97.8487Z" fill="#D1D1D1"/>
<path d="M304.126 136.283L304.03 136.256L265.162 125.842L236.638 154.365L236.666 154.461L247.08 193.329L247.175 193.357L286.044 203.77L314.567 175.247L314.539 175.151L304.126 136.283ZM265.264 126.231L303.839 136.57L314.177 175.145L285.938 203.385L247.363 193.046L237.024 154.471L265.264 126.231Z" fill="#D1D1D1"/>
<path d="M279.396 111.854L279.3 111.826L240.431 101.413L211.909 129.936L211.936 130.031L222.349 168.9L222.445 168.927L261.314 179.341L289.837 150.818L289.809 150.722L279.396 111.854ZM240.537 101.799L279.116 112.134L289.451 150.712L261.211 178.952L222.636 168.613L212.298 130.038L240.537 101.799Z" fill="#D1D1D1"/>
<path d="M254.973 87.1171L254.878 87.0898L216.01 76.676L187.483 105.203L187.51 105.298L197.924 144.167L198.02 144.194L236.888 154.608L265.411 126.084L265.384 125.989L254.973 87.1171ZM216.112 77.0653L254.69 87.4006L265.025 125.979L236.785 154.218L198.211 143.88L187.872 105.305L216.112 77.0653Z" fill="#D1D1D1"/>
<path d="M286.128 203.439L286.033 203.412L247.165 192.998L218.642 221.521L218.669 221.616L229.083 260.485L229.178 260.512L268.047 270.926L296.57 242.403L296.542 242.307L286.128 203.439ZM247.267 193.387L285.842 203.725L296.18 242.3L267.941 270.54L229.363 260.205L219.028 221.627L247.267 193.387Z" fill="#D1D1D1"/>
<path d="M275.982 164.427L275.722 164.358L236.693 153.901L207.935 182.659L208.003 182.919L218.461 221.948L218.72 222.016L257.75 232.474L286.508 203.715L286.44 203.456L275.982 164.427ZM236.97 154.935L275.224 165.185L285.473 203.439L257.469 231.443L219.216 221.193L208.966 182.939L236.97 154.935Z" fill="#D1D1D1"/>
<path d="M431.062 205.976L430.803 205.907L391.774 195.449L363.015 224.208L363.084 224.468L373.541 263.496L373.801 263.565L412.83 274.023L441.589 245.264L441.52 245.004L431.062 205.976ZM392.054 196.481L430.307 206.73L440.557 244.984L412.553 272.988L374.299 262.739L364.05 224.485L392.054 196.481Z" fill="#D1D1D1"/>
<path d="M392.051 195.828L391.955 195.8L353.087 185.387L324.564 213.91L324.591 214.005L335.004 252.874L335.1 252.901L373.969 263.315L402.492 234.792L402.465 234.696L392.051 195.828ZM353.193 185.772L391.771 196.107L402.106 234.686L373.867 262.925L335.288 252.59L324.953 214.012L353.193 185.772Z" fill="#D1D1D1"/>
<path opacity="0.34" d="M363.906 223.972L363.647 223.904L324.618 213.446L295.86 242.205L295.928 242.464L306.385 281.493L306.645 281.561L345.674 292.019L374.433 263.26L374.365 263.001L363.906 223.972ZM324.898 214.477L363.152 224.726L373.402 262.98L345.398 290.985L307.144 280.735L296.894 242.481L324.898 214.477Z" fill="#1814E5"/>
<path d="M296.519 242.201L296.423 242.174L257.555 231.76L229.031 260.283L229.059 260.379L239.473 299.247L239.568 299.274L278.436 309.688L306.959 281.165L306.932 281.069L296.519 242.201ZM257.657 232.149L296.232 242.488L306.57 281.062L278.33 309.302L239.753 298.967L229.417 260.389L257.657 232.149Z" fill="#D1D1D1"/>
<path d="M335.294 252.584L335.199 252.557L296.33 242.143L267.808 270.666L267.834 270.762L278.248 309.63L278.344 309.658L317.213 320.071L345.735 291.548L345.708 291.452L335.294 252.584ZM296.436 242.529L335.011 252.867L345.349 291.442L317.11 319.682L278.532 309.347L268.197 270.769L296.436 242.529Z" fill="#D1D1D1"/>
<path d="M884.953 489.457L884.857 489.43L845.991 479.018L817.468 507.542L817.495 507.637L827.906 546.503L828.002 546.53L866.872 556.946L895.396 528.423L895.368 528.327L884.953 489.457ZM846.093 479.407L884.666 489.744L895.003 528.317L866.763 556.557L828.19 546.22L817.853 507.646L846.093 479.407Z" fill="#D1D1D1"/>
<path d="M874.568 450.687L874.472 450.66L835.602 440.244L807.079 468.767L807.106 468.862L817.522 507.733L817.617 507.76L856.483 518.171L885.006 489.648L884.979 489.553L874.568 450.687ZM835.707 440.629L874.285 450.97L884.621 489.543L856.382 517.783L817.808 507.446L807.467 468.868L835.707 440.629Z" fill="#D1D1D1"/>
<path d="M786.638 391.143L786.543 391.115L747.674 380.702L719.151 409.225L719.179 409.321L729.592 448.189L729.688 448.216L768.558 458.631L797.081 430.108L797.054 430.013L786.638 391.143ZM747.777 381.091L786.351 391.43L796.688 430.002L768.449 458.242L729.876 447.906L719.537 409.331L747.777 381.091Z" fill="#D1D1D1"/>
<path d="M835.793 440.298L835.698 440.27L796.832 429.859L768.308 458.382L768.336 458.477L778.747 497.344L778.843 497.371L817.713 507.787L846.236 479.263L846.209 479.168L835.793 440.298ZM796.933 430.247L835.506 440.585L845.848 479.162L817.608 507.402L779.03 497.06L768.693 458.487L796.933 430.247Z" fill="#D1D1D1"/>
<path d="M807.409 468.681L807.314 468.654L768.448 458.242L739.925 486.766L739.952 486.861L750.364 525.727L750.459 525.754L789.329 536.17L817.853 507.647L817.825 507.552L807.409 468.681ZM768.553 458.627L807.13 468.961L817.468 507.542L789.228 535.782L750.65 525.44L740.313 486.867L768.553 458.627Z" fill="#D1D1D1"/>
<path d="M782.986 443.95L782.89 443.923L744.02 433.508L715.497 462.031L715.525 462.126L725.939 500.996L726.035 501.023L764.901 511.435L793.424 482.912L793.397 482.817L782.986 443.95ZM744.13 433.898L782.706 444.238L793.043 482.811L764.803 511.051L726.231 500.714L715.89 462.137L744.13 433.898Z" fill="#D1D1D1"/>
<path d="M758.262 419.52L758.166 419.492L719.297 409.079L690.775 437.601L690.802 437.697L701.216 476.566L701.311 476.593L740.181 487.008L768.704 458.485L768.677 458.39L758.262 419.52ZM719.4 409.468L757.975 419.806L768.312 458.379L740.072 486.619L701.499 476.282L691.161 437.707L719.4 409.468Z" fill="#D1D1D1"/>
<path d="M789.415 535.839L789.32 535.812L750.449 525.397L721.926 553.919L721.953 554.015L732.369 592.886L732.464 592.913L771.331 603.324L799.853 574.801L799.826 574.706L789.415 535.839ZM750.551 525.785L789.128 536.126L799.465 574.699L771.226 602.939L732.652 592.602L722.311 554.024L750.551 525.785Z" fill="#D1D1D1"/>
<path d="M779.03 497.06L778.935 497.033L740.069 486.622L711.546 515.145L711.573 515.24L721.984 554.107L722.08 554.133L760.95 564.549L789.473 536.026L789.446 535.931L779.03 497.06ZM740.17 487.01L778.743 497.347L789.085 535.925L760.845 564.164L722.267 553.823L711.931 515.25L740.17 487.01Z" fill="#D1D1D1"/>
<path d="M828.186 546.224L828.09 546.197L789.224 535.785L760.698 564.312L760.725 564.407L771.136 603.273L771.232 603.3L810.102 613.716L838.625 585.193L838.598 585.098L828.186 546.224ZM789.326 536.174L827.902 546.507L838.236 585.084L809.996 613.323L771.42 602.99L761.086 564.413L789.326 536.174Z" fill="#D1D1D1"/>
<path d="M746.074 775.81L745.816 775.744L706.787 765.285L678.028 794.044L678.099 794.306L688.553 833.33L688.815 833.401L727.844 843.86L756.602 815.101L756.532 814.839L746.074 775.81ZM707.068 766.317L745.319 776.565L755.571 814.82L727.567 842.825L689.311 832.573L679.063 794.321L707.068 766.317Z" fill="#D1D1D1"/>
<path d="M859.364 662.52L859.268 662.493L820.402 652.081L791.879 680.604L791.906 680.7L802.317 719.566L802.417 719.598L841.283 730.009L869.807 701.486L869.78 701.39L859.364 662.52ZM820.507 652.466L859.084 662.8L869.422 701.381L841.182 729.62L802.604 719.279L792.268 680.706L820.507 652.466Z" fill="#D1D1D1"/>
<path d="M774.211 747.673L774.116 747.645L735.25 737.234L706.726 765.757L706.754 765.852L717.165 804.719L717.265 804.75L756.131 815.162L784.654 786.638L784.627 786.543L774.211 747.673ZM735.351 737.622L773.928 747.956L784.266 786.537L756.026 814.777L717.445 804.439L707.111 765.862L735.351 737.622Z" fill="#D1D1D1"/>
<path d="M564.408 367.578L564.312 367.551L525.444 357.137L496.921 385.66L496.948 385.756L507.362 424.624L507.458 424.652L546.326 435.065L574.849 406.542L574.821 406.446L564.408 367.578ZM525.553 357.526L564.128 367.865L574.467 406.44L546.227 434.679L507.645 424.341L497.31 385.762L525.55 357.523L525.553 357.526Z" fill="#D1D1D1"/>
<path d="M380.633 354.723L380.537 354.695L341.669 344.282L313.146 372.805L313.173 372.901L323.587 411.769L323.682 411.796L362.551 422.21L391.073 393.687L391.046 393.591L380.633 354.723ZM341.774 344.668L380.35 355.006L390.688 393.581L362.448 421.821L323.874 411.482L313.535 372.907L341.774 344.668Z" fill="#D1D1D1"/>
<path d="M370.25 315.947L370.155 315.919L331.286 305.506L302.763 334.029L302.791 334.125L313.204 372.993L313.299 373.02L352.168 383.434L380.691 354.911L380.664 354.815L370.25 315.947ZM331.389 305.895L369.967 316.23L380.302 354.808L352.062 383.048L313.484 372.713L303.149 334.135L331.389 305.895Z" fill="#D1D1D1"/>
<path d="M195.137 248.877C196.153 249.893 196.153 251.541 195.137 252.558C194.121 253.574 192.472 253.574 191.456 252.558C190.44 251.541 190.44 249.893 191.456 248.877C192.472 247.86 194.121 247.86 195.137 248.877Z" fill="#C5C8CD"/>
<path d="M438.44 628.813C439.456 629.829 439.457 631.477 438.441 632.494C437.424 633.51 435.776 633.51 434.76 632.494C433.743 631.477 433.743 629.829 434.76 628.813C435.776 627.796 437.424 627.797 438.44 628.813Z" fill="#C5C8CD"/>
<path d="M641.604 781.97C642.619 782.985 642.617 784.631 641.601 785.647C640.585 786.664 638.938 786.665 637.923 785.651C636.904 784.631 636.905 782.985 637.922 781.968C638.938 780.952 640.584 780.95 641.604 781.97Z" fill="#C5C8CD"/>
<path d="M646.501 531.28C647.517 532.297 647.517 533.944 646.501 534.961C645.484 535.977 643.837 535.977 642.82 534.96C641.804 533.944 641.804 532.297 642.82 531.28C643.837 530.264 645.484 530.264 646.501 531.28Z" fill="#C5C8CD"/>
<path d="M484.281 398.484C485.297 399.501 485.297 401.148 484.28 402.165C483.264 403.181 481.617 403.181 480.6 402.165C479.584 401.148 479.584 399.5 480.6 398.484C481.617 397.468 483.264 397.468 484.281 398.484Z" fill="#C5C8CD"/>
<path d="M301.144 388.733C302.162 387.716 302.162 386.07 301.144 385.052C300.126 384.035 298.481 384.035 297.464 385.053C296.446 386.07 296.446 387.715 297.464 388.733C298.481 389.75 300.13 389.747 301.144 388.733Z" fill="#C5C8CD"/>
<path d="M422.099 165.779C423.116 166.796 423.116 168.444 422.099 169.46C421.083 170.476 419.435 170.477 418.418 169.46C417.402 168.444 417.403 166.796 418.419 165.779C419.435 164.763 421.083 164.763 422.099 165.779Z" fill="#C5C8CD"/>
<path d="M305.822 134.586C306.839 135.602 306.838 137.25 305.822 138.267C304.806 139.283 303.158 139.283 302.141 138.267C301.125 137.25 301.125 135.602 302.141 134.586C303.158 133.57 304.806 133.57 305.822 134.586Z" fill="#C5C8CD"/>
<path d="M600.048 626.888C601.067 627.907 601.065 629.554 600.049 630.57C599.033 631.586 597.386 631.588 596.367 630.569C595.352 629.554 595.354 627.907 596.37 626.891C597.386 625.875 599.033 625.873 600.048 626.888Z" fill="#C5C8CD"/>
</g>
<defs>
<clipPath id="clip0_1_446">
<rect width="890.911" height="499.9" fill="white" transform="matrix(0.707107 0.707107 0.707107 -0.707107 0 343.483)"/>
</clipPath>
</defs>
</svg>
